PathFileType	4	(X/Y/Z)	SUBJ36_3_walk_RCNL2025.trc
DataRate	CameraRate	NumFrames	NumMarkers	Units	OrigDataRate	OrigDataStartFrame	OrigNumFrames
100	100	10	25	mm	100	216	344
Frame#	Time	R_Shoulder			L_Shoulder			C7			J_Notch			R_Elbow			L_Elbow			R_Wrist			L_Wrist			R_Asis			L_Asis			Sacral			Thoracic			Sternum			R_Thigh_Lateral			R_Knee_Lateral			R_Shank_Lateral			R_Ankle_Lateral			R_Heel			R_Toe			L_Thigh_Lateral			L_Knee_Lateral			L_Shank_Lateral			L_Ankle_Lateral			L_Heel			L_Toe		
		X1	Y1	Z1	X2	Y2	Z2	X3	Y3	Z3	X4	Y4	Z4	X5	Y5	Z5	X6	Y6	Z6	X7	Y7	Z7	X8	Y8	Z8	X9	Y9	Z9	X10	Y10	Z10	X11	Y11	Z11	X12	Y12	Z12	X13	Y13	Z13	X14	Y14	Z14	X15	Y15	Z15	X16	Y16	Z16	X17	Y17	Z17	X18	Y18	Z18	X19	Y19	Z19	X20	Y20	Z20	X21	Y21	Z21	X22	Y22	Z22	X23	Y23	Z23	X24	Y24	Z24	X25	Y25	Z25
216	2.15000000	-4.630512	1342.385498	323.396393	-8.076977	1306.788208	-20.361700	-74.208496	1396.093506	160.412277	64.381020	1287.627930	162.086716	-70.844032	1029.732422	409.409943	-59.123959	993.379822	-61.572205	-4.265089	799.637848	441.609482	52.446625	786.175415	-53.229528	49.698830	907.265320	286.154449	55.552155	880.559631	58.981522	-167.344879	887.678772	173.712555	-153.261383	1140.023682	163.333649	95.994835	1108.490234	180.173004	75.685226	506.007385	333.674896	92.130371	447.902161	286.036285	82.774551	238.039902	320.992279	78.522568	71.075645	248.432327	25.913778	46.785080	205.953293	194.916946	48.462837	215.991455	-77.023781	497.758209	-27.791029	-86.813545	424.417297	39.003990	-256.815125	313.555908	5.149785	-382.819214	207.106674	76.778091	-416.100220	217.788239	137.015396	-358.571167	72.638634	81.086609
217	2.16000000	7.473427	1344.249756	324.143005	3.652089	1308.464478	-19.640680	-62.237625	1397.801025	161.226990	76.287682	1289.258057	162.841049	-57.026833	1031.302856	410.750275	-49.052074	995.297119	-60.373871	13.874890	802.299500	442.354996	59.223932	786.363251	-53.085295	60.873230	908.507141	288.069092	66.931503	881.550903	60.900536	-156.293503	889.649048	175.541183	-141.515961	1141.892334	164.406281	107.695084	1110.144165	181.336349	80.734344	506.080658	335.551392	95.975258	447.633514	287.828705	83.648453	237.683945	322.156860	78.520897	70.818901	248.722870	25.899427	46.896885	206.375702	194.882935	48.443382	216.456131	-54.803783	496.429413	-25.331181	-62.323452	423.321564	41.254810	-232.808762	315.366486	7.205715	-361.810944	213.299316	79.354332	-395.095367	224.230652	139.713120	-340.226624	78.413368	82.218018
218	2.17000000	19.552988	1346.036743	324.792267	15.064419	1310.061035	-19.020330	-50.347237	1399.561768	161.971909	88.046028	1290.860107	163.450882	-43.385590	1032.890259	412.006409	-39.195282	997.128296	-59.254307	32.006432	805.098022	442.943985	65.876348	786.575714	-53.036608	71.900658	909.792297	289.964142	78.190720	883.034424	62.717407	-145.358398	891.786743	177.427643	-129.969849	1143.817505	165.637009	119.202171	1111.750122	182.145203	85.565430	506.232452	337.308807	99.558777	447.429657	289.494263	84.413124	237.408218	323.242249	78.478256	70.575256	249.024826	25.838903	47.019493	206.819946	194.880478	48.417492	216.900177	-33.195759	495.911407	-22.639376	-37.815174	423.058228	43.603680	-208.354080	317.293671	9.415517	-339.710541	218.670624	81.741562	-373.374084	229.557999	142.094421	-319.361328	83.704094	83.769531
219	2.18000000	31.587244	1347.764526	325.369843	26.178080	1311.592163	-18.459333	-38.562145	1401.358032	162.676239	99.652145	1292.438477	163.949097	-29.914186	1034.505859	413.188812	-29.573124	998.898499	-58.204689	50.102094	808.051422	443.362167	72.411808	786.843567	-53.073582	82.807648	911.150208	291.838104	89.336334	884.981323	64.450554	-134.505417	894.018188	179.314865	-118.602859	1145.769653	167.031616	130.533813	1113.309937	182.624573	90.164658	506.436096	338.921997	102.918259	447.292725	291.013000	85.132576	237.214020	324.226471	78.400223	70.359093	249.319000	25.730370	47.158939	207.274796	194.911896	48.387833	217.297867	-12.198571	496.101349	-19.778896	-13.377234	423.556732	46.019455	-183.558319	319.315826	11.725692	-316.633484	223.032806	83.871597	-351.048004	233.693817	144.099854	-296.200653	88.263023	85.764130
220	2.19000000	43.553078	1349.454956	325.900757	37.016178	1313.073730	-17.919180	-26.907854	1403.165894	163.368240	111.104584	1293.996094	164.367310	-16.611500	1036.156494	414.309052	-20.205109	1000.633057	-57.214367	68.139111	811.173523	443.597305	78.841507	787.192841	-53.184713	93.619263	912.584106	293.684143	100.372169	887.308228	66.113602	-123.705139	896.258728	181.134415	-107.392372	1147.715454	168.587814	141.710938	1114.826294	182.822235	94.529770	506.664215	340.372498	106.064255	447.216156	292.367676	85.820969	237.089355	325.086304	78.299294	70.183571	249.580994	25.588867	47.323410	207.719177	194.972961	48.353390	217.631882	8.309101	496.884308	-16.842808	10.911785	424.719025	48.474892	-158.509399	321.383881	14.087494	-292.707672	226.251648	85.728493	-328.200256	236.572388	145.733963	-271.002808	91.937782	88.147255
221	2.20000000	55.429985	1351.125610	326.407471	47.604862	1314.516602	-17.368742	-15.405725	1404.958130	164.073242	122.405365	1295.531494	164.733704	-3.481355	1037.840698	415.378937	-11.107490	1002.350708	-56.271011	86.094444	814.469482	443.640198	85.182095	787.640137	-53.360332	104.359932	914.070068	295.489136	111.301804	889.890930	67.717064	-112.934052	898.425598	182.816681	-96.314117	1149.620117	170.294998	152.754181	1116.300659	182.801041	98.673111	506.892059	341.647461	108.995567	447.189240	293.542236	86.470383	237.017044	325.800812	78.194473	70.060486	249.791718	25.442257	47.522236	208.127045	195.056427	48.313259	217.897018	28.505472	498.150391	-13.935133	34.975868	426.436951	50.942909	-133.290207	323.416534	16.452902	-268.057404	228.255157	87.343468	-304.884613	238.130707	147.051590	-244.017960	94.668198	90.798096
222	2.21000000	67.203499	1352.786011	326.909760	57.968773	1315.924194	-16.787132	-4.068809	1406.705322	164.811905	133.559998	1297.036621	165.071732	9.469703	1039.545288	416.410858	-2.288458	1004.058594	-55.362297	103.942192	817.933411	443.488174	91.454845	788.191956	-53.594265	115.051842	915.560059	297.235077	122.131325	892.584412	69.270546	-102.175659	900.447021	184.302628	-85.344391	1151.449097	172.135345	163.681885	1117.731934	182.629684	102.617363	507.098419	342.739258	111.713799	447.199524	294.523682	87.075958	236.982758	326.355652	78.108482	69.999619	249.946686	25.319458	47.760849	208.473328	195.156769	48.269138	218.095581	48.570801	499.797699	-11.153013	58.740589	428.602325	53.393917	-107.990051	325.308777	18.775204	-242.791504	229.028076	88.779037	-281.126953	238.309296	148.139206	-215.465576	96.470177	93.552322
223	2.22000000	78.867287	1354.432983	327.424561	68.127602	1317.291382	-16.164240	7.101487	1408.377075	165.599670	144.577377	1298.496948	165.399231	22.235350	1041.244507	417.418121	6.258474	1005.749634	-54.477219	121.656139	821.545929	443.147949	97.683243	788.844086	-53.882267	125.713966	916.989929	298.902405	132.871552	895.243347	70.783195	-91.421402	902.269653	185.553101	-74.462959	1153.170410	174.086594	174.510056	1119.113281	182.374451	106.390625	507.267395	343.645996	114.230659	447.233856	295.303680	87.649307	236.977982	326.747009	78.065620	70.004730	250.050415	25.244183	48.036541	208.732773	195.271225	48.223579	218.231934	68.656166	501.734192	-8.575756	82.137909	431.112518	55.796688	-82.708702	326.955048	21.020084	-216.998917	228.592728	90.109390	-256.924286	237.064133	149.094910	-185.529724	97.411613	96.232506
224	2.23000000	90.424057	1356.050659	327.965302	78.095886	1318.606079	-15.499145	18.115780	1409.943115	166.447296	155.470001	1299.894165	165.728836	34.812588	1042.901978	418.414825	14.558177	1007.403503	-53.606949	139.212860	825.273895	442.635971	103.890362	789.579346	-54.218605	136.363815	918.288879	300.472504	143.537537	897.741333	72.262413	-80.671379	903.863403	186.551773	-63.654308	1154.756470	176.125214	185.253052	1120.432983	182.093292	110.022125	507.391327	344.372253	116.566109	447.281708	295.880768	88.220688	236.998123	326.982605	78.087891	70.071037	250.103714	25.233953	48.340588	208.881256	195.397995	48.178028	218.311386	88.870354	503.881531	-6.260264	105.113403	433.873230	58.121540	-57.548447	328.264832	23.171709	-190.745331	226.987411	91.401108	-232.243439	234.380447	150.009048	-154.367645	97.586151	98.679878
225	2.24000000	101.884972	1357.610840	328.540466	87.886040	1319.850464	-14.797388	28.993639	1411.375977	167.360291	166.254288	1301.207031	166.068481	47.205563	1044.473999	419.414642	22.650326	1008.991821	-52.746147	156.594070	829.074341	441.977844	110.096889	790.366913	-54.594418	147.019333	919.389526	301.928711	154.145187	899.985474	73.711647	-69.931725	905.222351	187.304886	-52.906994	1156.182861	178.228882	195.924744	1121.674927	181.832230	113.535896	507.472412	344.929535	118.742874	447.339783	296.265533	88.832733	237.038406	327.079407	78.187523	70.190483	250.104141	25.296883	48.664948	208.906357	195.534332	48.132454	218.341217	109.274788	506.180542	-4.238926	127.630913	436.800812	60.343475	-32.597763	329.162659	25.226986	-164.069244	224.254074	92.698784	-207.025467	230.276077	150.949753	-122.124573	97.088982	100.780685
